<?xml version="1.0" encoding="UTF-8"?>
<svg width="24px" height="24px" viewBox="0 0 24 24" version="1.1" xmlns="http://www.w3.org/2000/svg">
    <g stroke="none" stroke-width="1" fill="none" fill-rule="evenodd">
        <path d="M20.1,9.2214 C18.29,9.2214 17.55,7.9414 18.45,6.3714 C18.97,5.4614 18.66,4.3014 17.75,3.7814 L16.02,2.7914 C15.23,2.3214 14.21,2.6014 13.74,3.3914 L13.63,3.5814 C12.73,5.1514 11.25,5.1514 10.34,3.5814 L10.23,3.3914 C9.78,2.6014 8.76,2.3214 7.97,2.7914 L6.24,3.7814 C5.33,4.3014 5.02,5.4714 5.54,6.3814 C6.45,7.9414 5.71,9.2214 3.9,9.2214 C2.86,9.2214 2,10.0714 2,11.1214 L2,12.8814 C2,13.9214 2.85,14.7814 3.9,14.7814 C5.71,14.7814 6.45,16.0614 5.54,17.6314 C5.02,18.5414 5.33,19.7014 6.24,20.2214 L7.97,21.2114 C8.76,21.6814 9.78,21.4014 10.25,20.6114 L10.36,20.4214 C11.26,18.8514 12.74,18.8514 13.65,20.4214 L13.76,20.6114 C14.23,21.4014 15.25,21.6814 16.04,21.2114 L17.77,20.2214 C18.68,19.7014 18.99,18.5314 18.47,17.6314 C17.56,16.0614 18.3,14.7814 20.11,14.7814 C21.15,14.7814 22.01,13.9314 22.01,12.8814 L22.01,11.1214 C22,10.0814 21.15,9.2214 20.1,9.2214 Z M12,15.2514 C10.21,15.2514 8.75,13.7914 8.75,12.0014 C8.75,10.2114 10.21,8.7514 12,8.7514 C13.79,8.7514 15.25,10.2114 15.25,12.0014 C15.25,13.7914 13.79,15.2514 12,15.2514 Z" fill="currentColor" fill-rule="nonzero"></path>
    </g>
</svg> 